<?xml version="1.0" encoding="UTF-8"?>
<svg id="Layer_1" data-name="Layer 1" xmlns="http://www.w3.org/2000/svg" viewBox="0 0 321.76 267">
  <defs>
    <style>
      .cls-1 {
        fill: #008d9a;
      }

      .cls-2 {
        fill: #ffffff;
      }
    </style>
  </defs>
  <path class="cls-1" d="M117.23,77.6c3.93-.16,8.7-.03,12.68-.03l23.8.02c.74.48,1.47.89,1.86,1.72.25.53.3,1.11.33,1.68.23,4.3.18,40.19-.2,41.06-.47,1.08-1.4,1.65-2.43,2.11-3.16.31-5.97.04-9.1.09-7.96.14-15.93.19-23.9.16-2.91-.02-3.44.04-5.36-1.91-.54-3.45-.3-42.42,0-43.15.39-.92,1.45-1.37,2.3-1.75Z"/>
  <path class="cls-2" d="M59.56,148.71l2.59-.02c0,19.7-.23,39.95.05,59.61l-7.24.03v-46.32c-2.4,3.5-4.26,7.16-6.3,10.86l-10.24,18.45c-.82,1.46-3.52,6.98-4.64,7.93-.59.5-4.85.47-5.6.1-.39-.19-.92-.95-1.14-1.36-2.94-5.24-5.75-10.58-8.58-15.88-3.43-6.43-8.21-13.78-11.15-20.33-.09,3.04-.04,6.35-.04,9.41v37.09s-7.17.07-7.17.07c.28-6.36.04-14.78.03-21.25l-.13-38.41c2.47.22,5.68.14,8.2.15,1.48,2.25,3.76,6.73,5.19,9.31l12.5,22.87c1.5,2.76,3.46,6.96,5.14,9.41,1.37-2.95,3.81-7.1,5.42-10.05,3.77-6.96,7.63-13.89,11.56-20.76,1.86-3.29,3.84-7.15,5.88-10.32.44-.68,4.44-.52,5.67-.59Z"/>
  <path class="cls-2" d="M133.93,226.69c1.53.1,2.79.06,4.3-.06v13.54c-.01,2.63-.09,5.35.03,7.96.13,2.69.7,4.69,3.73,4.63,5.56-.1,11.1-.04,16.65,0,5.16.04,3.57-4.89,4.23-8.27,1.25-10.89,17.36-9.8,17.83.52.35,7.6-.41,7.9,7.98,7.77,2.39-.04,5.08-.04,7.58-.2-1.94-2.3-7.77-8.94-4.77-11.99,4.42-4.49,19.25-5.57,19.84,3.15.23,3.42-2.56,6.6-4.74,8.91,2.89.18,12.4.79,14.49-.56,2.3-1.49,1.39-5.8,1.99-8.21.02-.08.04-.15.06-.22,1.3-3.37,2.92-5.57,6.62-6.56,10.09-2.69,14.85,10.34,9.92,17.35-1.43,2.01-3.63,3.34-6.08,3.67-3.44.49-5.63-.89-8.18-2.83-.33.32-.66.63-1.01.93-.46.4-1.59,1.2-2.3,1.29-5.17.66-11.74.52-16.94.04-.47-.04-3.54-1.61-3.75-1.65-.55-.12-3.48,1.56-4.65,1.68-4.64.49-9.64.31-14.3.22-1.81-.03-3.12-1.25-4.15-2.53-4.47,4.32-9.21,3.21-13.3.36-.25-.18-1.98,1.96-3.12,2.01-7.5.26-14.74.36-22.28.04-8.2-.35-5.65-12.35-6.02-17.74-.12-1.81-.24-12.59.29-13.27ZM233.12,253.18c1.34-.44,2.4-.95,2.95-2.32,1.67-4.13.23-9.4-4.94-9.02-3.44,1.35-4.86,5-3.49,8.37.5,1.25,1.5,2.24,2.77,2.71.87.32,1.8.29,2.72.25ZM172.68,253.18c4.6-1.64,4.37-7.1,1.85-10.49-1.37-.57-2.23-.99-3.75-.8-5.34,2.03-5.58,11.82,1.9,11.29ZM195.48,243.72c1.33,2.1,3.99,5.85,6.12,7.18,1.13-.87,2.21-1.63,3.1-2.75,3.43-4.34.77-6.21-3.75-6.06-2.46.15-3.23.54-5.47,1.63Z"/>
  <path class="cls-2" d="M118.03,15.61l28.28-.03c2.77,0,16.26-.33,18.14.56.5.56.89.94.9,1.74.31,16.6-.08,33.33.21,49.93,10.84-.12,21.72.16,32.57,0,2.94-.05,7-.36,9.85-.07.86.09,1.66.48,2.26,1.1,1.24,1.26.92,8.47.91,10.53v12.66s-.04,17.01-.04,17.01c.02,3.31.1,6.63.09,9.94,0,1.6-.28,3.37-1.52,4.49-.5.46-1.32.8-2,.82-2.78.07-5.64.07-8.42.07h-16.21s-12.07.02-12.07.02c-2.3.01-4.74.18-7.03-.06-.73-.08-1.34-.23-1.79-.87-.41-.59-.52-16.93-.16-17.82.15-.37.62-.59.98-.69.63-.19,1.5-.09,2.08.2.65.77.39,13.47.47,15.42,13.79-.22,28.06.23,41.8-.21-.11-9.2.02-18.57.01-27.79-.04-6.47.2-14.32-.12-20.65-9.6-.2-19.34.03-28.95-.03-4.18-.03-8.57.12-12.71-.06-.24,5.13.16,10.45-.1,15.17-1.02.07-2.33.26-3.24-.14-.59-1.11-.31-12.73-.45-15-2.21.02-14.8.16-16.12-.33-.59-.95-.33-2.54-.24-3.69,5.24.05,10.92-.12,16.23-.12.39-4.92.13-13.77.13-18.92,0-9.42.22-19.61-.09-28.98l-43.24.02c-.47,15.48-.15,32.38-.1,47.98,3.23.08,6.36-.03,9.58,0l-.06,3.88c-2.01.18-12.2.52-13.08-.7-.34-2.48-.21-6.18-.22-8.8v-14.33s0-18.73,0-18.73c0-3.08-.52-8.57.66-11.45.42-1.02,1.73-1.73,2.8-2.03Z"/>
  <path class="cls-2" d="M114.22,164.46c1.79-.18,4.63,0,6.4.51,3.31.98,6.09,3.23,7.75,6.25,4.03-4.66,7.05-6.68,13.43-6.75,3.97-.17,7.94.77,10.88,3.64,5.45,5.32,4.13,14.59,4.13,21.52l.06,18.6c-2.29.03-4.59.02-6.88-.03l.03-18.94c0-4.7.82-11.47-2.19-15.4-4.39-5.72-15.85-2.86-17.44,3.92-.47,1.99-.28,5.46-.27,7.67l.03,11.93c-.02,3.65-.03,7.29,0,10.94l-6.82-.03c-.1-1.88.09-4.63.11-6.61l.06-14.37c.01-5.38.55-13.66-5.65-15.87-3.69-1.31-8.78-.42-11.57,2.33-1.32,1.28-2.23,2.92-2.65,4.71-.63,2.7-.4,9.43-.39,12.47l-.02,17.24c-2.23.16-4.51.15-6.74.16.18-4.43.02-10.05.02-14.56v-28.52c1.45.12,5.32-.09,5.84.02.51.65.55,3.49.99,4.76.76.31,2.04-1.78,3.28-2.69,2.91-2.14,4.11-2.45,7.61-2.9Z"/>
  <path class="cls-2" d="M179.72,164.52c.69-.08,1.38-.13,2.08-.14,5.27-.09,10.27.38,14.25,4.2,4.78,4.58,3.7,11.19,3.75,17.28l.1,22.52c-1.75-.2-4.55-.08-6.51-.17.09-1.31-.06-3.4-.11-4.77-5.23,4.54-9.24,6.38-16.4,5.38-4.2-.59-6.67-2.23-9.19-5.58-2.06-3.36-1.98-8.17-1.16-11.89.65-3,2.9-5.5,5.51-7.01,5.46-3.16,15.17-2.82,21.03-1.27-.19-2.39.45-4.71-.66-7.11-2.73-5.94-9.89-5.79-15.29-4.43-2.19.55-4.67,1.82-6.79,2.88-.52-2.24-.99-4.48-1.42-6.73,3.82-2.25,6.56-2.72,10.83-3.15ZM183.57,202.7c4.68-1.03,6-1.38,9.39-5.15.04-2.84.05-5.67.02-8.51-4.56-.88-6.65-1.21-11.3-1.06-2.74.26-5.24.77-7.15,3-1.22,1.43-1.83,3.28-1.67,5.16.48,5.61,5.89,7.27,10.72,6.56Z"/>
  <path class="cls-2" d="M256.17,164.48c5.97-.07,10.56.08,15.15,4.59,5.7,5.6,5.41,12.01,5.45,19.42-9.59.38-20.85.16-30.54.18-.08,9,6.42,14.81,15.3,14.02,2.86-.25,4.59-.97,7.16-2.19l3.49-2.37c.84,2.14,1.57,3.96,2.17,6.18-6.73,5.82-20.05,6.35-27.21,1.13-9.57-6.97-10.5-24.96-3.68-34.08,3.54-4.74,7.13-6.1,12.7-6.87ZM259.51,182.63c2.92-.03,7.67.16,10.32-.15,0-2.69-.13-4.68-1.72-7.05-2.22-3.31-5.84-5.06-9.82-5.03l-1.57.03c-4.27,1.05-5.86,2.05-8.4,5.89-.83,1.26-2.22,4.12-2.09,5.62.24.38.31.63.9.66,3.97.2,8.41.02,12.36.04Z"/>
  <path class="cls-2" d="M286.53,147.16c1.83.14,4.87.05,6.78.05-.13,2.28-.04,5.56-.04,7.91l.06,15.71c.01,1.89-.1,11.08.25,12.38l.39.22c.64-.04.88.03,1.38-.46,1.92-1.89,3.69-4.15,5.49-6.17l10.43-11.58c2.7-.19,6.01-.05,8.77,0-3.64,4.52-8.26,8.64-12.05,13.07-1.81,2.12-3.95,4.09-5.64,6.3,3.15,4.36,8.4,10.34,11.95,14.67,2.44,2.94,4.94,6.26,7.46,9.03-2.21-.18-6.18,0-8.63-.02-1.86-1.5-6.45-7.37-8.19-9.54-2.11-2.63-5.98-7.05-7.79-9.74-1.07.54-2.76,1.21-3.56,1.93-.55,1.39-.32,15.06-.33,17.37-2.13-.08-4.56,0-6.71.03v-29.36c.02-10.56.1-21.25-.01-31.8Z"/>
  <path class="cls-2" d="M227.75,164.68c2.71.02,4.3-.06,6.96.57-.28,2.43-.38,4.92-.52,7.36-6.4-3.49-13.95-.61-15.74,6.74-.89,3.67-.53,8.55-.52,12.41l.04,16.47c-.95-.01-1.89-.01-2.84,0-1.28.02-2.59,0-3.88,0,.25-4.05.04-10.67.04-14.89l-.07-28.16h6.72c-.03,1.85.16,3.77.3,5.63,3-3.66,4.45-5.58,9.5-6.15Z"/>
  <path class="cls-2" d="M106.17,226.58l4.82.08c-.34,5.14.9,24.94-.83,27.99-.71,1.25-1.96,2.5-3.39,2.88-2.18.58-22.26.54-24.98.21-1.32-.16-2.61-.47-3.74-1.18-2.47-1.55-3.44-3.73-4.05-6.47-.27-3.72.11-5.64,1.23-9.11,1.58.14,3.22.35,4.8.52-.58,2.49-1.73,6.4-.64,8.7.38.8,1.65,2.19,2.56,2.26,6.83.52,13.87.19,20.75.21,2.43,0,3.28-.71,3.38-3.08.12-2.65.07-5.29.07-7.94-.03-5.02-.02-10.04.03-15.06Z"/>
  <path class="cls-2" d="M173.29,15.58c5.71-.19,11.5.02,17.22.02,5.16,0,10.42-.24,15.57.02.92.05,1.89.18,2.76.5.92.34,1.53,1.36,1.88,2.22.31.77.35,1.65.4,2.47.23,4.52.3,40.56-.12,41.34-.25.47-.77.6-1.23.77-.73.01-1.77.11-2.32-.33-.28-1.76-.12-8.39-.12-10.6v-20.26c.01-3.51.14-8.5-.14-11.89-3.61-.13-33.38.13-34.51-.42-.99-1.1-.3-2.9.63-3.84Z"/>
  <path class="cls-2" d="M76.55,165.19c2.33.03,4.66.02,6.99-.01.04,14.24.23,28.86-.03,43.07-2.32.04-4.64.04-6.96,0v-43.06Z"/>
  <path class="cls-2" d="M123.75,239.01c1.63.08,2.66.07,4.27-.08l.04,12.95c0,7.4.78,14.64-8.98,15.09-1.86.11-2.69-.14-4.44-.61l.13-4.61c6.72.98,8.35-.7,8.66-7.02.11-2.29-.4-14.74.32-15.72Z"/>
  <path class="cls-1" d="M212.22.05c3.42-.1,7.21-.03,10.66-.03.04,4.06.14,8.28-.06,12.33-3.29.25-7.21.07-10.63.16.03-2.04-.28-11.29.03-12.46Z"/>
  <path class="cls-1" d="M9.27,244.75l30.64.05.06,2.55c-.77.39-27.81.24-30.69.24-.03-.96-.02-1.88,0-2.84Z"/>
  <path class="cls-1" d="M276.7,244.76c9.68-.33,20.25.13,30.09-.09.03,1.08.09,1.86-.08,2.93h-30.06c-.07-.99-.19-1.89.05-2.84Z"/>
  <path class="cls-2" d="M95.05,231.53l.46-.07.3.27c.24,1.03.1,2.3.04,3.38-1.58-.02-2.69-.08-3.78,1.32-.23,2.14,3.69,1.81,5.02,1.79l-.06,4.07c-1.02-.06-2.32-.03-3.36-.04-2.07.01-4.15,0-6.22-.03.03-.88.1-1.82.15-2.7,3.17-3.19-1.25-7.7,7.44-7.99Z"/>
  <path class="cls-2" d="M79.81,147.93c4.77-.96,4.58,4.08,4.25,7.19-.87,1.44-1.33,1.72-2.95,1.97-5.85.26-5.86-2.33-4.96-7.46,1.46-1.6,1.56-1.59,3.66-1.7Z"/>
</svg>