<?xml version="1.0" encoding="UTF-8"?>
<svg id="Layer_1" data-name="Layer 1" xmlns="http://www.w3.org/2000/svg" viewBox="0 0 588.89 581.16">
  <defs>
    <style>
      .cls-1 {
        fill: #fff;
      }

      .cls-2 {
        fill: #008d9a;
      }

      .cls-3 {
        fill: #031630;
      }
    </style>
  </defs>
  <rect class="cls-3" width="588.89" height="581.16"/>
  <g>
    <path class="cls-2" d="M127.71,305.17c2.83-.11,6.27-.02,9.14-.02h17.15c.53.36,1.06.66,1.34,1.25.18.38.21.8.24,1.21.17,3.1.13,28.96-.14,29.58-.34.77-1.01,1.19-1.75,1.52-2.27.22-4.3.03-6.55.06-5.74.1-11.48.14-17.22.11-2.1-.01-2.48.03-3.86-1.37-.39-2.48-.22-30.57,0-31.09.28-.66,1.05-.99,1.66-1.26Z"/>
    <path class="cls-1" d="M128.29,260.51l20.38-.02c1.99,0,11.72-.24,13.07.41.36.4.64.68.65,1.25.22,11.96-.05,24.02.15,35.97,7.81-.09,15.65.12,23.47,0,2.12-.03,5.05-.26,7.1-.05.62.07,1.2.35,1.63.79.89.91.66,6.1.66,7.59v9.12s-.03,12.25-.03,12.25c.01,2.38.07,4.78.07,7.16,0,1.15-.2,2.42-1.1,3.23-.36.33-.95.58-1.44.59-2,.05-4.07.05-6.07.05h-11.68s-8.69.01-8.69.01c-1.66.01-3.41.13-5.07-.04-.53-.05-.97-.16-1.29-.63-.29-.42-.37-12.2-.12-12.84.11-.27.45-.42.7-.5.46-.14,1.08-.07,1.5.14.47.55.28,9.7.34,11.11,9.94-.16,20.22.17,30.12-.15-.08-6.63.01-13.38,0-20.02-.03-4.66.15-10.32-.08-14.88-6.91-.14-13.93.02-20.86-.02-3.01-.02-6.18.09-9.16-.04-.17,3.7.11,7.53-.07,10.93-.74.05-1.68.19-2.34-.1-.42-.8-.23-9.17-.32-10.81-1.59.01-10.66.11-11.62-.24-.43-.69-.24-1.83-.18-2.66,3.77.04,7.87-.09,11.69-.09.28-3.55.09-9.92.09-13.63,0-6.79.16-14.13-.06-20.88l-31.15.02c-.34,11.15-.11,23.33-.07,34.57,2.33.06,4.58-.02,6.9,0l-.04,2.8c-1.45.13-8.79.37-9.42-.5-.24-1.79-.15-4.45-.16-6.34v-10.32s0-13.49,0-13.49c0-2.22-.37-6.18.47-8.25.3-.73,1.25-1.24,2.01-1.47Z"/>
    <path class="cls-1" d="M168.1,260.48c4.12-.13,8.28.02,12.41.01,3.72,0,7.51-.17,11.22.02.66.03,1.36.13,1.99.36.66.24,1.1.98,1.35,1.6.22.55.25,1.19.28,1.78.17,3.26.21,29.22-.09,29.79-.18.34-.55.43-.88.55-.53,0-1.28.08-1.67-.24-.2-1.27-.09-6.04-.09-7.64v-14.6c0-2.53.1-6.12-.1-8.57-2.6-.09-24.05.1-24.86-.3-.72-.79-.22-2.09.45-2.76Z"/>
    <path class="cls-2" d="M196.15,249.3c2.46-.07,5.2-.02,7.68-.02.03,2.92.1,5.97-.04,8.88-2.37.18-5.2.05-7.66.12.02-1.47-.2-8.13.02-8.98Z"/>
  </g>
  <g>
    <path class="cls-1" d="M284.89,261.84h1.69c0,12.86-.15,26.1.03,38.95l-4.73.02v-30.27c-1.57,2.29-2.78,4.68-4.12,7.1l-6.69,12.05c-.53.95-2.3,4.56-3.03,5.18-.39.33-3.17.31-3.66.07-.25-.12-.6-.62-.74-.89-1.92-3.43-3.76-6.91-5.61-10.38-2.24-4.2-5.37-9-7.29-13.29-.06,1.99-.02,4.15-.03,6.15v24.24s-4.69.04-4.69.04c.18-4.16.02-9.66.02-13.89l-.08-25.1c1.62.14,3.71.09,5.36.1.96,1.47,2.46,4.4,3.39,6.08l8.17,14.95c.98,1.8,2.26,4.55,3.36,6.15.9-1.93,2.49-4.64,3.54-6.57,2.47-4.55,4.99-9.07,7.56-13.57,1.22-2.15,2.51-4.67,3.84-6.74.28-.44,2.9-.34,3.71-.39Z"/>
    <path class="cls-1" d="M333.5,312.8c1,.07,1.82.04,2.81-.04v8.85c0,1.72-.06,3.5.02,5.2.08,1.76.46,3.06,2.44,3.03,3.63-.07,7.25-.03,10.88,0,3.37.03,2.33-3.2,2.77-5.41.82-7.12,11.34-6.4,11.65.34.23,4.97-.27,5.16,5.22,5.08,1.56-.02,3.32-.03,4.96-.13-1.27-1.5-5.08-5.84-3.12-7.83,2.89-2.93,12.58-3.64,12.97,2.06.15,2.23-1.67,4.31-3.1,5.82,1.89.12,8.1.52,9.47-.37,1.5-.97.91-3.79,1.3-5.36.01-.05.03-.1.04-.15.85-2.2,1.91-3.64,4.33-4.28,6.6-1.76,9.71,6.76,6.48,11.34-.93,1.32-2.37,2.19-3.97,2.4-2.25.32-3.68-.58-5.35-1.85-.21.21-.43.41-.66.61-.3.26-1.04.79-1.5.84-3.38.43-7.68.34-11.07.03-.31-.03-2.32-1.05-2.45-1.08-.36-.08-2.27,1.02-3.04,1.1-3.03.32-6.3.2-9.34.14-1.19-.02-2.04-.82-2.71-1.65-2.92,2.82-6.02,2.1-8.69.24-.16-.11-1.29,1.28-2.04,1.31-4.9.17-9.63.23-14.56.02-5.36-.23-3.69-8.07-3.93-11.59-.08-1.18-.16-8.23.19-8.67ZM398.32,330.12c.87-.29,1.57-.62,1.93-1.51,1.09-2.7.15-6.14-3.23-5.89-2.25.88-3.18,3.27-2.28,5.47.33.82.98,1.46,1.81,1.77.57.21,1.18.19,1.78.16ZM358.82,330.11c3-1.07,2.85-4.64,1.21-6.85-.89-.37-1.46-.65-2.45-.52-3.49,1.33-3.65,7.73,1.24,7.38ZM373.72,323.93c.87,1.37,2.61,3.82,4,4.69.74-.57,1.45-1.06,2.02-1.8,2.24-2.84.5-4.06-2.45-3.96-1.61.1-2.11.35-3.57,1.07Z"/>
    <path class="cls-1" d="M320.61,272.14c1.17-.12,3.03,0,4.19.33,2.16.64,3.98,2.11,5.06,4.08,2.63-3.04,4.61-4.36,8.78-4.41,2.59-.11,5.19.5,7.11,2.38,3.56,3.47,2.7,9.54,2.7,14.06l.04,12.16c-1.5.02-3,.02-4.5-.02l.02-12.38c0-3.07.54-7.5-1.43-10.06-2.87-3.74-10.36-1.87-11.4,2.56-.31,1.3-.18,3.57-.18,5.01l.02,7.79c-.02,2.38-.02,4.77,0,7.15l-4.45-.02c-.07-1.23.06-3.03.07-4.32l.04-9.39c0-3.51.36-8.93-3.69-10.37-2.41-.86-5.74-.28-7.56,1.52-.86.84-1.46,1.91-1.73,3.08-.41,1.76-.26,6.17-.26,8.15v11.27c-1.47.11-2.96.1-4.42.11.12-2.9.01-6.57.01-9.51v-18.64c.95.08,3.47-.06,3.82.01.33.43.36,2.28.64,3.11.5.2,1.33-1.16,2.14-1.76,1.9-1.4,2.69-1.6,4.98-1.89Z"/>
    <path class="cls-1" d="M363.42,272.18c.45-.05.9-.08,1.36-.09,3.44-.06,6.71.25,9.31,2.75,3.13,3,2.42,7.32,2.45,11.29l.06,14.72c-1.14-.13-2.97-.05-4.26-.11.06-.86-.04-2.22-.07-3.12-3.42,2.97-6.04,4.17-10.72,3.52-2.75-.38-4.36-1.46-6.01-3.65-1.35-2.19-1.29-5.34-.76-7.77.43-1.96,1.9-3.6,3.6-4.58,3.57-2.07,9.92-1.84,13.74-.83-.13-1.56.29-3.08-.43-4.65-1.78-3.88-6.46-3.79-9.99-2.9-1.43.36-3.05,1.19-4.44,1.88-.34-1.46-.65-2.93-.93-4.4,2.49-1.47,4.29-1.78,7.08-2.06ZM365.93,297.12c3.06-.67,3.92-.9,6.14-3.36.03-1.85.03-3.71.02-5.56-2.98-.58-4.35-.79-7.39-.69-1.79.17-3.42.5-4.68,1.96-.8.93-1.19,2.15-1.09,3.37.31,3.67,3.85,4.75,7,4.29Z"/>
    <path class="cls-1" d="M413.38,272.15c3.9-.05,6.9.05,9.9,3,3.73,3.66,3.54,7.85,3.56,12.69-6.27.25-13.63.1-19.96.12-.05,5.88,4.2,9.68,10,9.16,1.87-.17,3-.63,4.68-1.43l2.28-1.55c.55,1.4,1.03,2.59,1.42,4.04-4.4,3.8-13.1,4.15-17.78.74-6.25-4.55-6.86-16.31-2.4-22.27,2.32-3.09,4.66-3.99,8.3-4.49ZM415.57,284.01c1.91-.02,5.01.1,6.75-.1,0-1.76-.08-3.06-1.12-4.61-1.45-2.16-3.82-3.31-6.41-3.29l-1.03.02c-2.79.69-3.83,1.34-5.49,3.85-.55.83-1.45,2.69-1.36,3.67.16.25.2.41.59.43,2.6.13,5.49.02,8.08.03Z"/>
    <path class="cls-1" d="M433.22,260.83c1.19.09,3.18.03,4.43.03-.09,1.49-.02,3.63-.02,5.17l.04,10.27c0,1.24-.07,7.24.16,8.09l.25.14c.42-.03.57.02.9-.3,1.26-1.23,2.41-2.71,3.59-4.03l6.82-7.57c1.76-.13,3.93-.03,5.73,0-2.38,2.95-5.4,5.65-7.88,8.54-1.19,1.38-2.58,2.67-3.69,4.12,2.06,2.85,5.49,6.76,7.81,9.58,1.6,1.92,3.23,4.09,4.88,5.9-1.45-.11-4.04,0-5.64-.01-1.22-.98-4.22-4.82-5.36-6.24-1.38-1.72-3.91-4.61-5.09-6.36-.7.35-1.8.79-2.33,1.26-.36.91-.21,9.84-.21,11.35-1.39-.05-2.98,0-4.39.02v-19.19c.01-6.9.07-13.89,0-20.78Z"/>
    <path class="cls-1" d="M394.81,272.28c1.77.01,2.81-.04,4.55.38-.18,1.59-.25,3.21-.34,4.81-4.18-2.28-9.11-.4-10.29,4.41-.58,2.4-.35,5.59-.34,8.11l.03,10.76c-.62,0-1.24,0-1.85,0-.84.01-1.7,0-2.53,0,.16-2.64.03-6.98.03-9.73l-.05-18.4h4.39c-.02,1.21.1,2.47.2,3.68,1.96-2.39,2.91-3.65,6.21-4.02Z"/>
    <path class="cls-1" d="M315.35,312.73l3.15.05c-.22,3.36.59,16.3-.54,18.29-.47.82-1.28,1.63-2.22,1.88-1.42.38-14.55.35-16.32.14-.86-.1-1.71-.31-2.45-.77-1.62-1.02-2.25-2.44-2.65-4.23-.18-2.43.07-3.69.81-5.96,1.03.09,2.1.23,3.14.34-.38,1.63-1.13,4.18-.42,5.69.25.52,1.08,1.43,1.67,1.48,4.47.34,9.07.12,13.56.14,1.59,0,2.14-.47,2.21-2.01.08-1.73.05-3.46.04-5.19-.02-3.28-.01-6.56.02-9.84Z"/>
    <path class="cls-1" d="M295.99,272.61c1.52.02,3.04.01,4.57,0,.03,9.31.15,18.86-.02,28.15-1.52.03-3.03.03-4.55,0v-28.14Z"/>
    <path class="cls-1" d="M326.84,320.85c1.06.05,1.74.05,2.79-.05l.03,8.47c0,4.84.51,9.57-5.87,9.86-1.21.07-1.76-.09-2.9-.4l.09-3.01c4.39.64,5.46-.46,5.66-4.59.07-1.5-.26-9.64.21-10.28Z"/>
    <path class="cls-2" d="M252.03,324.61l20.03.03.04,1.67c-.5.26-18.18.16-20.06.16-.02-.63-.01-1.23,0-1.86Z"/>
    <path class="cls-2" d="M426.8,324.61c6.33-.22,13.23.09,19.66-.06.02.7.06,1.21-.05,1.91h-19.64c-.04-.65-.12-1.24.03-1.86Z"/>
    <path class="cls-1" d="M308.08,318.11l.3-.03.19.12c.16.47.06,1.04.03,1.53-1.03,0-1.76-.04-2.47.6-.15.97,2.41.82,3.28.81l-.04,1.85c-.66-.03-1.52-.01-2.2-.02-1.36,0-2.71,0-4.07-.01.02-.4.07-.83.1-1.23,2.07-1.45-.82-3.5,4.86-3.63Z"/>
    <path class="cls-1" d="M298.12,261.33c3.12-.63,2.99,2.66,2.78,4.7-.57.94-.87,1.12-1.93,1.29-3.82.17-3.83-1.52-3.24-4.88.95-1.05,1.02-1.04,2.39-1.11Z"/>
  </g>
  <path class="cls-2" d="M223.9,339.27l.03-78.27,1.67-.14c.26,1.96.16,71.04.16,78.4-.63.07-1.23.04-1.86.02Z"/>
</svg>