<?xml version="1.0" encoding="UTF-8"?>
<svg id="Layer_1" data-name="Layer 1" xmlns="http://www.w3.org/2000/svg" viewBox="0 0 209.07 239.82">
  <defs>
    <style>
      .cls-1 {
        fill: #14C0C0;
      }

      .cls-2 {
        fill: #FFFFFF;
      }
    </style>
  </defs>
  <path class="cls-1" d="M5.33,149.56c7.57-.3,16.77-.05,24.44-.05l45.88.03c1.42.93,2.84,1.72,3.59,3.31.48,1.01.57,2.14.63,3.25.44,8.29.34,77.46-.38,79.13-.9,2.07-2.7,3.18-4.68,4.07-6.08.59-11.51.07-17.53.17-15.35.27-30.7.37-46.05.3-5.62-.03-6.63.07-10.32-3.68-1.03-6.64-.59-81.77,0-83.16.75-1.77,2.8-2.64,4.43-3.37Z"/>
  <path class="cls-2" d="M6.88,30.08l54.51-.05c5.33,0,31.35-.64,34.96,1.08.96,1.08,1.71,1.82,1.74,3.36.6,31.99-.15,64.24.4,96.22,20.9-.23,41.87.32,62.77-.02,5.66-.09,13.5-.7,18.99-.14,1.66.17,3.2.92,4.36,2.12,2.38,2.43,1.77,16.32,1.76,20.3v24.4s-.09,32.78-.09,32.78c.04,6.38.19,12.78.18,19.16,0,3.08-.54,6.49-2.93,8.65-.97.88-2.55,1.55-3.86,1.58-5.36.14-10.88.13-16.23.13l-31.23-.02-23.26.05c-4.44.03-9.13.35-13.55-.12-1.41-.15-2.58-.44-3.45-1.68-.79-1.13-.99-32.63-.31-34.35.28-.72,1.2-1.14,1.88-1.34,1.22-.37,2.89-.18,4,.38,1.25,1.48.75,25.95.9,29.71,26.58-.42,54.08.44,80.57-.4-.21-17.73.03-35.79.02-53.55-.07-12.47.39-27.6-.23-39.81-18.49-.39-37.27.07-55.79-.05-8.05-.05-16.52.23-24.5-.11-.46,9.89.3,20.14-.2,29.23-1.97.14-4.49.5-6.25-.28-1.13-2.15-.6-24.53-.86-28.91-4.25.04-28.53.31-31.07-.64-1.14-1.84-.63-4.9-.47-7.11,10.09.1,21.05-.23,31.28-.24.74-9.48.25-26.54.25-36.46.01-18.16.43-37.8-.17-55.86l-83.34.04c-.91,29.84-.29,62.41-.19,92.47,6.23.15,12.26-.05,18.46-.02l-.11,7.48c-3.87.35-23.51,1-25.21-1.35-.65-4.78-.41-11.91-.42-16.96v-27.62s0-36.1,0-36.1c0-5.93-1-16.52,1.27-22.06.8-1.96,3.33-3.33,5.39-3.92Z"/>
  <path class="cls-2" d="M113.38,30.02c11.01-.36,22.16.04,33.18.04,9.95,0,20.09-.45,30.01.05,1.77.09,3.64.34,5.31.96,1.77.65,2.95,2.61,3.61,4.28.59,1.48.68,3.18.76,4.76.44,8.71.57,78.17-.24,79.68-.48.9-1.47,1.16-2.37,1.48-1.41.02-3.42.22-4.46-.64-.53-3.39-.24-16.17-.23-20.43l.02-39.05c0-6.76.25-16.38-.29-22.91-6.96-.25-64.34.26-66.51-.81-1.91-2.11-.58-5.6,1.21-7.4Z"/>
  <path class="cls-1" d="M188.4.1c6.59-.2,13.91-.05,20.55-.06.08,7.82.27,15.97-.12,23.76-6.34.47-13.9.14-20.49.32.06-3.94-.55-21.75.06-24.01Z"/>
</svg>